<svg width="32" height="32" viewBox="0 0 32 32" fill="none" xmlns="http://www.w3.org/2000/svg">
<rect x="0.5" y="0.5" width="31" height="31" rx="15.5" fill="#0C0D0F"/>
<path d="M18.3267 21.84C18.2 21.84 18.0733 21.7934 17.9733 21.6934C17.78 21.5 17.78 21.18 17.9733 20.9867L21.3133 17.6467C21.5067 17.4534 21.8267 17.4534 22.02 17.6467C22.2133 17.84 22.2133 18.16 22.02 18.3534L18.68 21.6934C18.58 21.7867 18.4533 21.84 18.3267 21.84Z" fill="white"/>
<path d="M21.6667 18.4933H10.3333C10.06 18.4933 9.83334 18.2666 9.83334 17.9933C9.83334 17.72 10.06 17.4933 10.3333 17.4933H21.6667C21.94 17.4933 22.1667 17.72 22.1667 17.9933C22.1667 18.2666 21.94 18.4933 21.6667 18.4933Z" fill="white"/>
<path d="M10.3333 14.5067C10.2067 14.5067 10.08 14.46 9.97999 14.36C9.78666 14.1667 9.78666 13.8467 9.97999 13.6533L13.32 10.3133C13.5133 10.12 13.8333 10.12 14.0267 10.3133C14.22 10.5067 14.22 10.8267 14.0267 11.02L10.6867 14.36C10.5933 14.4533 10.46 14.5067 10.3333 14.5067Z" fill="white"/>
<path d="M21.6667 14.5067H10.3333C10.06 14.5067 9.83334 14.28 9.83334 14.0067C9.83334 13.7334 10.06 13.5067 10.3333 13.5067H21.6667C21.94 13.5067 22.1667 13.7334 22.1667 14.0067C22.1667 14.28 21.94 14.5067 21.6667 14.5067Z" fill="white"/>
<rect x="0.5" y="0.5" width="31" height="31" rx="15.5" stroke="#16191F"/>
</svg>
