<svg width="99" height="21" viewBox="0 0 99 21" fill="none" xmlns="http://www.w3.org/2000/svg">
<path d="M10.22 5.24C10.22 5.94667 10.0533 6.61333 9.72 7.24C9.38667 7.86667 8.85333 8.38 8.12 8.78C7.38667 9.16667 6.44667 9.36 5.3 9.36H2.78V15H0.5V1.1H5.3C6.36667 1.1 7.26667 1.28667 8 1.66C8.74667 2.02 9.3 2.51333 9.66 3.14C10.0333 3.76667 10.22 4.46667 10.22 5.24ZM5.3 7.5C6.16667 7.5 6.81333 7.30667 7.24 6.92C7.66667 6.52 7.88 5.96 7.88 5.24C7.88 3.72 7.02 2.96 5.3 2.96H2.78V7.5H5.3ZM11.6345 9.44C11.6345 8.33333 11.8612 7.35333 12.3145 6.5C12.7812 5.64667 13.4079 4.98667 14.1945 4.52C14.9945 4.04 15.8745 3.8 16.8345 3.8C17.7012 3.8 18.4545 3.97333 19.0945 4.32C19.7479 4.65333 20.2679 5.07333 20.6545 5.58V3.98H22.9545V15H20.6545V13.36C20.2679 13.88 19.7412 14.3133 19.0745 14.66C18.4079 15.0067 17.6479 15.18 16.7945 15.18C15.8479 15.18 14.9812 14.94 14.1945 14.46C13.4079 13.9667 12.7812 13.2867 12.3145 12.42C11.8612 11.54 11.6345 10.5467 11.6345 9.44ZM20.6545 9.48C20.6545 8.72 20.4945 8.06 20.1745 7.5C19.8679 6.94 19.4612 6.51333 18.9545 6.22C18.4479 5.92667 17.9012 5.78 17.3145 5.78C16.7279 5.78 16.1812 5.92667 15.6745 6.22C15.1679 6.5 14.7545 6.92 14.4345 7.48C14.1279 8.02667 13.9745 8.68 13.9745 9.44C13.9745 10.2 14.1279 10.8667 14.4345 11.44C14.7545 12.0133 15.1679 12.4533 15.6745 12.76C16.1945 13.0533 16.7412 13.2 17.3145 13.2C17.9012 13.2 18.4479 13.0533 18.9545 12.76C19.4612 12.4667 19.8679 12.04 20.1745 11.48C20.4945 10.9067 20.6545 10.24 20.6545 9.48ZM31.5092 3.8C32.3759 3.8 33.1492 3.98 33.8292 4.34C34.5226 4.7 35.0626 5.23333 35.4492 5.94C35.8359 6.64667 36.0292 7.5 36.0292 8.5V15H33.7692V8.84C33.7692 7.85333 33.5226 7.1 33.0292 6.58C32.5359 6.04667 31.8626 5.78 31.0092 5.78C30.1559 5.78 29.4759 6.04667 28.9692 6.58C28.4759 7.1 28.2292 7.85333 28.2292 8.84V15H25.9492V3.98H28.2292V5.24C28.6026 4.78667 29.0759 4.43333 29.6492 4.18C30.2359 3.92667 30.8559 3.8 31.5092 3.8Z" fill="white"/>
<path d="M42.9375 15.18C42.0708 15.18 41.2908 15.0267 40.5975 14.72C39.9175 14.4 39.3775 13.9733 38.9775 13.44C38.5775 12.8933 38.3642 12.2867 38.3375 11.62H40.6975C40.7375 12.0867 40.9575 12.48 41.3575 12.8C41.7708 13.1067 42.2842 13.26 42.8975 13.26C43.5375 13.26 44.0308 13.14 44.3775 12.9C44.7375 12.6467 44.9175 12.3267 44.9175 11.94C44.9175 11.5267 44.7175 11.22 44.3175 11.02C43.9308 10.82 43.3108 10.6 42.4575 10.36C41.6308 10.1333 40.9575 9.91333 40.4375 9.7C39.9175 9.48667 39.4642 9.16 39.0775 8.72C38.7042 8.28 38.5175 7.7 38.5175 6.98C38.5175 6.39333 38.6908 5.86 39.0375 5.38C39.3842 4.88667 39.8775 4.5 40.5175 4.22C41.1708 3.94 41.9175 3.8 42.7575 3.8C44.0108 3.8 45.0175 4.12 45.7775 4.76C46.5508 5.38667 46.9642 6.24667 47.0175 7.34H44.7375C44.6975 6.84667 44.4975 6.45333 44.1375 6.16C43.7775 5.86667 43.2908 5.72 42.6775 5.72C42.0775 5.72 41.6175 5.83333 41.2975 6.06C40.9775 6.28667 40.8175 6.58667 40.8175 6.96C40.8175 7.25333 40.9242 7.5 41.1375 7.7C41.3508 7.9 41.6108 8.06 41.9175 8.18C42.2242 8.28667 42.6775 8.42667 43.2775 8.6C44.0775 8.81333 44.7308 9.03333 45.2375 9.26C45.7575 9.47333 46.2042 9.79333 46.5775 10.22C46.9508 10.6467 47.1442 11.2133 47.1575 11.92C47.1575 12.5467 46.9842 13.1067 46.6375 13.6C46.2908 14.0933 45.7975 14.48 45.1575 14.76C44.5308 15.04 43.7908 15.18 42.9375 15.18ZM54.4011 15.18C53.3611 15.18 52.4211 14.9467 51.5811 14.48C50.7411 14 50.0811 13.3333 49.6011 12.48C49.1211 11.6133 48.8811 10.6133 48.8811 9.48C48.8811 8.36 49.1278 7.36667 49.6211 6.5C50.1144 5.63333 50.7878 4.96667 51.6411 4.5C52.4944 4.03333 53.4478 3.8 54.5011 3.8C55.5544 3.8 56.5078 4.03333 57.3611 4.5C58.2144 4.96667 58.8878 5.63333 59.3811 6.5C59.8744 7.36667 60.1211 8.36 60.1211 9.48C60.1211 10.6 59.8678 11.5933 59.3611 12.46C58.8544 13.3267 58.1611 14 57.2811 14.48C56.4144 14.9467 55.4544 15.18 54.4011 15.18ZM54.4011 13.2C54.9878 13.2 55.5344 13.06 56.0411 12.78C56.5611 12.5 56.9811 12.08 57.3011 11.52C57.6211 10.96 57.7811 10.28 57.7811 9.48C57.7811 8.68 57.6278 8.00667 57.3211 7.46C57.0144 6.9 56.6078 6.48 56.1011 6.2C55.5944 5.92 55.0478 5.78 54.4611 5.78C53.8744 5.78 53.3278 5.92 52.8211 6.2C52.3278 6.48 51.9344 6.9 51.6411 7.46C51.3478 8.00667 51.2011 8.68 51.2011 9.48C51.2011 10.6667 51.5011 11.5867 52.1011 12.24C52.7144 12.88 53.4811 13.2 54.4011 13.2ZM64.655 5.6C65.0417 5.09333 65.5683 4.66667 66.235 4.32C66.9017 3.97333 67.655 3.8 68.495 3.8C69.455 3.8 70.3283 4.04 71.115 4.52C71.915 4.98667 72.5417 5.64667 72.995 6.5C73.4483 7.35333 73.675 8.33333 73.675 9.44C73.675 10.5467 73.4483 11.54 72.995 12.42C72.5417 13.2867 71.915 13.9667 71.115 14.46C70.3283 14.94 69.455 15.18 68.495 15.18C67.655 15.18 66.9083 15.0133 66.255 14.68C65.6017 14.3333 65.0683 13.9067 64.655 13.4V20.24H62.375V3.98H64.655V5.6ZM71.355 9.44C71.355 8.68 71.195 8.02667 70.875 7.48C70.5683 6.92 70.155 6.5 69.635 6.22C69.1283 5.92667 68.5817 5.78 67.995 5.78C67.4217 5.78 66.875 5.92667 66.355 6.22C65.8483 6.51333 65.435 6.94 65.115 7.5C64.8083 8.06 64.655 8.72 64.655 9.48C64.655 10.24 64.8083 10.9067 65.115 11.48C65.435 12.04 65.8483 12.4667 66.355 12.76C66.875 13.0533 67.4217 13.2 67.995 13.2C68.5817 13.2 69.1283 13.0533 69.635 12.76C70.155 12.4533 70.5683 12.0133 70.875 11.44C71.195 10.8667 71.355 10.2 71.355 9.44ZM81.6297 3.8C82.4697 3.8 83.2164 3.98 83.8697 4.34C84.5364 4.7 85.0564 5.23333 85.4297 5.94C85.8164 6.64667 86.0097 7.5 86.0097 8.5V15H83.7497V8.84C83.7497 7.85333 83.503 7.1 83.0097 6.58C82.5164 6.04667 81.843 5.78 80.9897 5.78C80.1364 5.78 79.4564 6.04667 78.9497 6.58C78.4564 7.1 78.2097 7.85333 78.2097 8.84V15H75.9297V0.2H78.2097V5.26C78.5964 4.79333 79.083 4.43333 79.6697 4.18C80.2697 3.92667 80.923 3.8 81.6297 3.8ZM98.838 3.98L92.078 20.18H89.718L91.958 14.82L87.618 3.98H90.158L93.258 12.38L96.478 3.98H98.838Z" fill="#0096C7"/>
</svg>
